<svg xmlns="http://www.w3.org/2000/svg" width="228" height="228" fill="none" viewBox="0 0 228 228"><rect width="228" height="228" fill="#fff"/><rect width="228" height="228" fill="#F4FAF6"/><rect width="14.681" height="15.999" x="88.314" y="54.54" fill="#81D489"/><path stroke="#040404" stroke-linecap="round" stroke-linejoin="round" stroke-width="3" d="M87.5176 70.5392H102.996"/><path fill="#81D489" stroke="#81D489" stroke-linecap="round" stroke-linejoin="round" stroke-width="3" d="M95.2576 103.843C98.1062 103.843 100.416 101.549 100.416 98.7205C100.416 95.8917 98.1062 93.5984 95.2576 93.5984C92.4089 93.5984 90.0996 95.8917 90.0996 98.7205C90.0996 101.549 92.4089 103.843 95.2576 103.843Z"/><path fill="#81D489" stroke="#81D489" stroke-linecap="round" stroke-linejoin="round" stroke-width="3" d="M145.348 126.961C146.297 126.961 147.066 126.197 147.066 125.254C147.066 124.312 146.297 123.547 145.348 123.547C144.398 123.547 143.629 124.312 143.629 125.254C143.629 126.197 144.398 126.961 145.348 126.961Z"/><path fill="#81D489" stroke="#81D489" stroke-linecap="round" stroke-linejoin="round" stroke-width="3" d="M134.133 134.27C135.239 134.27 136.136 133.38 136.136 132.281C136.136 131.182 135.239 130.291 134.133 130.291C133.026 130.291 132.129 131.182 132.129 132.281C132.129 133.38 133.026 134.27 134.133 134.27Z"/><path fill="#81D489" stroke="#81D489" stroke-linecap="round" stroke-linejoin="round" stroke-width="3" d="M142.293 145.123C143.274 145.123 144.069 144.333 144.069 143.36C144.069 142.386 143.274 141.596 142.293 141.596C141.313 141.596 140.518 142.386 140.518 143.36C140.518 144.333 141.313 145.123 142.293 145.123Z"/><path stroke="#040404" stroke-linecap="round" stroke-linejoin="round" stroke-width="2" d="M79.5089 103.054L82.6717 107.543C84.0791 109.563 85.9591 111.215 88.1503 112.355C90.3416 113.496 92.7788 114.092 95.2529 114.092C97.727 114.092 100.164 113.496 102.355 112.355C104.547 111.215 106.427 109.563 107.834 107.543L111.002 103.054L110.682 102.465C105.639 93.2444 102.996 82.9183 102.995 72.4254V57.7309C102.995 57.0515 102.723 56.3999 102.239 55.9195C101.755 55.439 101.099 55.1691 100.415 55.1691H90.0961C89.4119 55.1691 88.7557 55.439 88.2719 55.9195C87.7881 56.3999 87.5164 57.0515 87.5164 57.7309V72.4254C87.5146 82.9183 84.8721 93.2444 79.8288 102.465C74.8908 111.11 72.2124 120.846 72.0381 130.783V162.765C72.0463 165.48 73.136 168.082 75.0694 170.001C77.0028 171.921 79.6227 173.004 82.3569 173.012H108.421"/><path stroke="#040404" stroke-linecap="round" stroke-linejoin="round" stroke-width="2" d="M140.482 152.517V173.011"/><path stroke="#040404" stroke-linecap="round" stroke-linejoin="round" stroke-width="2" d="M127.585 173.011H153.382"/><path stroke="#040404" stroke-linecap="round" stroke-linejoin="round" stroke-width="2" d="M127.338 116.652H153.63"/><path stroke="#040404" stroke-linecap="round" stroke-linejoin="round" stroke-width="2" d="M132.403 96.1575C131.782 96.1576 131.181 96.3805 130.712 96.7853C130.243 97.1901 129.937 97.7495 129.85 98.3606C128.73 106.266 125.005 132.935 125.005 137.146C125.005 141.223 126.636 145.132 129.538 148.015C132.441 150.898 136.378 152.517 140.483 152.517C144.588 152.517 148.525 150.898 151.428 148.015C154.331 145.132 155.961 141.223 155.961 137.146C155.961 132.935 152.236 106.266 151.117 98.3606C151.029 97.7451 150.719 97.1822 150.244 96.7768C149.77 96.3715 149.163 96.1514 148.537 96.1575H132.403Z"/><path stroke="#040404" stroke-linecap="round" stroke-linejoin="round" stroke-width="2" d="M100.415 55.1685C101.099 55.1685 101.755 55.4384 102.239 55.9189C102.723 56.3993 102.994 57.0509 102.994 57.7303V72.4248C102.996 82.9177 105.639 93.2438 110.682 102.464C115.62 111.109 118.298 120.845 118.473 130.783V162.764C118.464 165.479 117.375 168.081 115.441 170.001C113.508 171.921 110.888 173.003 108.154 173.011"/></svg>